<?xml version="1.0" encoding="UTF-8" standalone="no"?>
<svg
   viewBox="0 0 64 64"
   version="1.1"
   id="svg334"
   sodipodi:docname="Extension.svg"
   inkscape:version="1.3.1 (91b66b0783, 2023-11-16)"
   xml:space="preserve"
   inkscape:export-filename="Extension.png"
   inkscape:export-xdpi="1500"
   inkscape:export-ydpi="1500"
   xmlns:inkscape="http://www.inkscape.org/namespaces/inkscape"
   xmlns:sodipodi="http://sodipodi.sourceforge.net/DTD/sodipodi-0.dtd"
   xmlns:xlink="http://www.w3.org/1999/xlink"
   xmlns="http://www.w3.org/2000/svg"
   xmlns:svg="http://www.w3.org/2000/svg"><defs
     id="defs338"><radialGradient
       inkscape:collect="always"
       xlink:href="#linearGradient1200-3"
       id="radialGradient1"
       cx="21.456154"
       cy="78.368561"
       fx="21.456154"
       fy="78.368561"
       r="32"
       gradientUnits="userSpaceOnUse"
       gradientTransform="matrix(0,-1.732455,1.6108918,1.1567074e-6,-94.133103,92.61029)" /><linearGradient
       inkscape:collect="always"
       id="linearGradient1200-3"><stop
         style="stop-color:#ca1428;stop-opacity:1;"
         offset="0"
         id="stop1198-6" /><stop
         style="stop-color:#9b1526;stop-opacity:1;"
         offset="1"
         id="stop1196-7" /></linearGradient></defs><sodipodi:namedview
     id="namedview336"
     pagecolor="#ffffff"
     bordercolor="#666666"
     borderopacity="1.0"
     inkscape:showpageshadow="2"
     inkscape:pageopacity="0.0"
     inkscape:pagecheckerboard="0"
     inkscape:deskcolor="#d1d1d1"
     showgrid="false"
     showguides="true"
     inkscape:zoom="3.6875001"
     inkscape:cx="52.203388"
     inkscape:cy="58.711863"
     inkscape:window-width="1440"
     inkscape:window-height="831"
     inkscape:window-x="0"
     inkscape:window-y="0"
     inkscape:window-maximized="1"
     inkscape:current-layer="svg334" /><path
     fill="#FF8700"
     d="M 0,0 H 64 V 64 H 0 Z"
     id="path330-5"
     style="fill:url(#radialGradient1);fill-opacity:1" /><path
     style="color:#000000;fill:#ffffff;stroke-linecap:round;stroke-linejoin:round;-inkscape-stroke:none;paint-order:fill markers stroke"
     d="m 25.351562,21.810547 c -3.838512,0.247463 -7.58653,1.891577 -10.40039,4.878906 -5.6277211,5.974658 -5.6702618,15.360621 -0.09766,21.386719 5.572605,6.026098 14.932306,6.716319 21.328125,1.572265 a 3,3 0 0 0 0.457031,-4.21875 3,3 0 0 0 -4.216797,-0.457031 c -3.983135,3.203571 -9.693602,2.78218 -13.164063,-0.970703 -3.47046,-3.752883 -3.444238,-9.476417 0.06055,-13.197266 3.504786,-3.720848 9.218334,-4.08963 13.171875,-0.849609 a 3,3 0 0 0 4.222657,-0.417969 3,3 0 0 0 -0.419922,-4.222656 c -3.17415,-2.601291 -7.102894,-3.751369 -10.941407,-3.503906 z"
     id="path1" /><path
     style="color:#000000;fill:#ffffff;stroke-linecap:round;stroke-linejoin:round;-inkscape-stroke:none;paint-order:fill markers stroke"
     d="M 40.007812,10.970703 C 35.7134,10.566487 31.365266,12.070359 28.222656,15.230469 a 2,2 0 0 0 0.0078,2.828125 2,2 0 0 0 2.828125,-0.0078 c 3.054877,-3.071889 7.645589,-3.991085 11.648437,-2.333984 4.002849,1.657101 6.600149,5.552483 6.589844,9.884765 -0.01031,4.332283 -2.626032,8.21743 -6.636719,9.855469 -4.010687,1.638039 -8.59649,0.695763 -11.636719,-2.390625 a 2,2 0 0 0 -2.830078,-0.02148 2,2 0 0 0 -0.01953,2.828125 c 4.170053,4.233367 10.498842,5.533884 16,3.287109 5.501158,-2.246775 9.108912,-7.606561 9.123047,-13.548828 0.01414,-5.942267 -3.568187,-11.318875 -9.058594,-13.591797 -1.372601,-0.56823 -2.798998,-0.914089 -4.230469,-1.048828 z"
     id="circle1" /></svg>
